<svg width="580" height="386" viewBox="0 0 580 386" fill="none" xmlns="http://www.w3.org/2000/svg">
<path d="M272.92 0L157.1 221H272.92H388.741L272.92 0Z" fill="#DF182F"/>
<path d="M343 20L234 221H343H452L343 20Z" fill="#DF182F"/>
<path d="M289.7 80.2148L224.219 221H289.7H355.181L289.7 80.2148Z" fill="#F02640"/>
<path d="M177.563 139.967L135 221H177.563H220.126L177.563 139.967Z" fill="#F02640"/>
<path d="M119.699 294L127.426 247.455H145.79C149.305 247.455 152.191 248.129 154.449 249.477C156.722 250.811 158.313 252.667 159.222 255.045C160.146 257.409 160.358 260.136 159.858 263.227C159.343 266.333 158.222 269.068 156.494 271.432C154.782 273.78 152.555 275.614 149.812 276.932C147.07 278.25 143.903 278.909 140.312 278.909H128.608L129.903 271.023H140.017C141.926 271.023 143.555 270.697 144.903 270.045C146.267 269.379 147.35 268.462 148.153 267.295C148.956 266.114 149.479 264.758 149.722 263.227C149.979 261.667 149.896 260.311 149.472 259.159C149.047 258.008 148.267 257.114 147.131 256.477C146.009 255.826 144.502 255.5 142.608 255.5H135.972L129.54 294H119.699ZM169.881 294.659C167.669 294.659 165.752 294.273 164.131 293.5C162.525 292.712 161.343 291.545 160.585 290C159.828 288.455 159.638 286.538 160.017 284.25C160.35 282.311 160.979 280.689 161.903 279.386C162.843 278.068 163.987 277.008 165.335 276.205C166.684 275.402 168.176 274.788 169.812 274.364C171.464 273.939 173.169 273.652 174.926 273.5C176.956 273.288 178.608 273.083 179.881 272.886C181.169 272.689 182.131 272.409 182.767 272.045C183.403 271.667 183.79 271.106 183.926 270.364V270.227C184.153 268.803 183.888 267.697 183.131 266.909C182.388 266.106 181.199 265.705 179.562 265.705C177.835 265.705 176.366 266.083 175.153 266.841C173.956 267.598 173.1 268.561 172.585 269.727L163.767 269C164.555 266.879 165.744 265.045 167.335 263.5C168.941 261.939 170.873 260.742 173.131 259.909C175.388 259.061 177.919 258.636 180.722 258.636C182.661 258.636 184.472 258.864 186.153 259.318C187.85 259.773 189.313 260.477 190.54 261.432C191.782 262.386 192.676 263.614 193.222 265.114C193.782 266.598 193.896 268.379 193.562 270.455L189.631 294H180.449L181.267 289.159H180.994C180.252 290.25 179.343 291.212 178.267 292.045C177.191 292.864 175.956 293.508 174.562 293.977C173.169 294.432 171.608 294.659 169.881 294.659ZM173.767 287.977C175.176 287.977 176.472 287.697 177.653 287.136C178.85 286.561 179.835 285.788 180.608 284.818C181.396 283.848 181.896 282.75 182.108 281.523L182.699 277.818C182.396 278.015 181.956 278.189 181.381 278.341C180.82 278.492 180.206 278.636 179.54 278.773C178.888 278.894 178.229 279.008 177.562 279.114C176.896 279.205 176.297 279.295 175.767 279.386C174.6 279.553 173.555 279.818 172.631 280.182C171.706 280.545 170.956 281.038 170.381 281.659C169.805 282.265 169.449 283.023 169.312 283.932C169.1 285.25 169.411 286.258 170.244 286.955C171.093 287.636 172.267 287.977 173.767 287.977ZM197.142 294L202.96 259.091H212.642L206.824 294H197.142ZM208.801 254.545C207.362 254.545 206.172 254.068 205.233 253.114C204.309 252.144 203.93 250.992 204.097 249.659C204.263 248.295 204.915 247.144 206.051 246.205C207.188 245.25 208.475 244.773 209.915 244.773C211.354 244.773 212.528 245.25 213.438 246.205C214.347 247.144 214.725 248.295 214.574 249.659C214.422 250.992 213.778 252.144 212.642 253.114C211.521 254.068 210.241 254.545 208.801 254.545ZM227.67 273.818L224.307 294H214.648L220.466 259.091H229.67L228.67 265.25H229.057C230.163 263.205 231.723 261.591 233.739 260.409C235.769 259.227 238.08 258.636 240.67 258.636C243.095 258.636 245.117 259.167 246.739 260.227C248.375 261.288 249.527 262.795 250.193 264.75C250.875 266.705 250.989 269.045 250.534 271.773L246.807 294H237.125L240.557 273.5C240.905 271.364 240.633 269.697 239.739 268.5C238.86 267.288 237.443 266.682 235.489 266.682C234.186 266.682 232.989 266.962 231.898 267.523C230.807 268.083 229.89 268.902 229.148 269.977C228.42 271.038 227.928 272.318 227.67 273.818ZM278.778 259.091L277.574 266.364H256.528L257.756 259.091H278.778ZM263.892 250.727H273.574L268.165 283.273C268.013 284.167 268.036 284.864 268.233 285.364C268.43 285.848 268.756 286.189 269.21 286.386C269.68 286.583 270.241 286.682 270.892 286.682C271.347 286.682 271.809 286.644 272.278 286.568C272.748 286.477 273.104 286.409 273.347 286.364L273.71 293.568C273.165 293.735 272.43 293.917 271.506 294.114C270.597 294.311 269.521 294.432 268.278 294.477C265.915 294.568 263.915 294.258 262.278 293.545C260.642 292.818 259.468 291.705 258.756 290.205C258.044 288.705 257.892 286.818 258.301 284.545L263.892 250.727ZM298.852 255.568L300.216 247.455H338.443L337.08 255.568H322.83L316.466 294H306.739L313.102 255.568H298.852ZM347.585 294.682C344.009 294.682 341.047 293.955 338.699 292.5C336.35 291.03 334.699 288.955 333.744 286.273C332.805 283.576 332.646 280.386 333.267 276.705C333.873 273.114 335.093 269.962 336.926 267.25C338.775 264.538 341.093 262.424 343.881 260.909C346.669 259.394 349.775 258.636 353.199 258.636C355.502 258.636 357.585 259.008 359.449 259.75C361.328 260.477 362.888 261.583 364.131 263.068C365.373 264.538 366.222 266.379 366.676 268.591C367.146 270.803 367.138 273.394 366.653 276.364L366.222 279.023H336.767L337.699 273.023H358.062C358.29 271.629 358.199 270.394 357.79 269.318C357.381 268.242 356.699 267.402 355.744 266.795C354.79 266.174 353.616 265.864 352.222 265.864C350.797 265.864 349.464 266.212 348.222 266.909C346.979 267.606 345.934 268.523 345.085 269.659C344.252 270.78 343.714 272 343.472 273.318L342.403 279.273C342.1 281.106 342.161 282.629 342.585 283.841C343.025 285.053 343.782 285.962 344.858 286.568C345.934 287.159 347.297 287.455 348.949 287.455C350.025 287.455 351.032 287.303 351.972 287C352.926 286.697 353.775 286.25 354.517 285.659C355.259 285.053 355.866 284.303 356.335 283.409L365.176 284C364.358 286.152 363.116 288.03 361.449 289.636C359.782 291.227 357.775 292.47 355.426 293.364C353.093 294.242 350.479 294.682 347.585 294.682ZM385.761 294.682C382.17 294.682 379.216 293.924 376.898 292.409C374.595 290.879 372.981 288.758 372.057 286.045C371.148 283.333 370.989 280.212 371.58 276.682C372.155 273.106 373.36 269.97 375.193 267.273C377.027 264.561 379.352 262.447 382.17 260.932C385.004 259.402 388.186 258.636 391.716 258.636C394.761 258.636 397.337 259.189 399.443 260.295C401.549 261.402 403.095 262.955 404.08 264.955C405.064 266.955 405.398 269.303 405.08 272H395.966C395.981 270.273 395.534 268.871 394.625 267.795C393.716 266.72 392.383 266.182 390.625 266.182C389.11 266.182 387.716 266.591 386.443 267.409C385.186 268.212 384.117 269.386 383.239 270.932C382.375 272.477 381.769 274.348 381.42 276.545C381.057 278.773 381.049 280.667 381.398 282.227C381.746 283.788 382.413 284.977 383.398 285.795C384.383 286.614 385.625 287.023 387.125 287.023C388.246 287.023 389.284 286.795 390.239 286.341C391.208 285.886 392.057 285.227 392.784 284.364C393.511 283.485 394.072 282.432 394.466 281.205H403.602C402.981 283.886 401.852 286.235 400.216 288.25C398.595 290.265 396.557 291.841 394.102 292.977C391.648 294.114 388.867 294.682 385.761 294.682ZM420.733 273.818L417.369 294H407.71L415.438 247.455H424.824L421.915 265.25H422.301C423.422 263.189 424.96 261.576 426.915 260.409C428.869 259.227 431.18 258.636 433.847 258.636C436.271 258.636 438.294 259.167 439.915 260.227C441.551 261.273 442.71 262.78 443.392 264.75C444.074 266.705 444.188 269.045 443.733 271.773L440.006 294H430.347L433.756 273.5C434.104 271.348 433.824 269.674 432.915 268.477C432.021 267.28 430.597 266.682 428.642 266.682C427.324 266.682 426.112 266.962 425.006 267.523C423.9 268.083 422.968 268.902 422.21 269.977C421.468 271.038 420.975 272.318 420.733 273.818ZM47.5256 340.75H37.7074C37.7377 339.447 37.571 338.295 37.2074 337.295C36.8438 336.28 36.2983 335.417 35.571 334.705C34.8589 333.992 33.9877 333.455 32.9574 333.091C31.9271 332.712 30.768 332.523 29.4801 332.523C26.9953 332.523 24.715 333.144 22.6392 334.386C20.5634 335.629 18.8134 337.432 17.3892 339.795C15.965 342.144 14.9801 344.985 14.4347 348.318C13.9044 351.53 13.9347 354.22 14.5256 356.386C15.1165 358.553 16.1619 360.189 17.6619 361.295C19.1771 362.386 21.0634 362.932 23.321 362.932C24.715 362.932 26.0407 362.758 27.2983 362.409C28.5559 362.045 29.6998 361.53 30.7301 360.864C31.7756 360.182 32.6847 359.356 33.4574 358.386C34.2453 357.417 34.8589 356.318 35.2983 355.091H45.1847C44.5634 357.227 43.5938 359.288 42.2756 361.273C40.9725 363.258 39.3589 365.03 37.4347 366.591C35.5104 368.136 33.321 369.364 30.8665 370.273C28.4119 371.182 25.7225 371.636 22.7983 371.636C18.571 371.636 14.9422 370.667 11.9119 368.727C8.89678 366.788 6.72254 363.992 5.3892 360.341C4.05587 356.689 3.80587 352.288 4.6392 347.136C5.47254 342.152 7.10133 337.924 9.52557 334.455C11.965 330.97 14.9271 328.326 18.4119 326.523C21.9119 324.72 25.6544 323.818 29.6392 323.818C32.4119 323.818 34.9195 324.197 37.1619 324.955C39.4044 325.712 41.3134 326.818 42.8892 328.273C44.4801 329.712 45.6771 331.477 46.4801 333.568C47.2831 335.659 47.6316 338.053 47.5256 340.75ZM65.2415 371.682C61.6809 371.682 58.7339 370.924 56.4006 369.409C54.0672 367.879 52.4233 365.758 51.4688 363.045C50.5294 360.318 50.3551 357.144 50.946 353.523C51.5218 349.947 52.7188 346.818 54.5369 344.136C56.3551 341.455 58.6657 339.371 61.4688 337.886C64.2718 336.386 67.4309 335.636 70.946 335.636C74.4915 335.636 77.4309 336.402 79.7642 337.932C82.0975 339.447 83.7415 341.568 84.696 344.295C85.6506 347.023 85.8324 350.197 85.2415 353.818C84.6506 357.379 83.4384 360.5 81.6051 363.182C79.7718 365.864 77.4612 367.955 74.6733 369.455C71.8854 370.939 68.7415 371.682 65.2415 371.682ZM66.196 364.182C67.8324 364.182 69.2794 363.72 70.5369 362.795C71.8097 361.856 72.8627 360.583 73.696 358.977C74.5445 357.356 75.1354 355.523 75.4688 353.477C75.8021 351.462 75.8248 349.674 75.5369 348.114C75.2491 346.538 74.643 345.295 73.7188 344.386C72.8097 343.477 71.5597 343.023 69.9688 343.023C68.3324 343.023 66.8778 343.492 65.6051 344.432C64.3324 345.356 63.2794 346.629 62.446 348.25C61.6127 349.871 61.0294 351.712 60.696 353.773C60.3778 355.773 60.3551 357.561 60.6278 359.136C60.9006 360.697 61.4991 361.932 62.4233 362.841C63.3475 363.735 64.6051 364.182 66.196 364.182ZM101.764 350.818L98.4006 371H88.7415L94.5597 336.091H103.764L102.764 342.25H103.151C104.257 340.205 105.817 338.591 107.832 337.409C109.863 336.227 112.173 335.636 114.764 335.636C117.188 335.636 119.211 336.167 120.832 337.227C122.469 338.288 123.62 339.795 124.287 341.75C124.969 343.705 125.082 346.045 124.628 348.773L120.901 371H111.219L114.651 350.5C114.999 348.364 114.726 346.697 113.832 345.5C112.954 344.288 111.537 343.682 109.582 343.682C108.279 343.682 107.082 343.962 105.991 344.523C104.901 345.083 103.984 345.902 103.241 346.977C102.514 348.038 102.022 349.318 101.764 350.818ZM152.872 336.091L151.668 343.364H130.622L131.849 336.091H152.872ZM137.986 327.727H147.668L142.259 360.273C142.107 361.167 142.13 361.864 142.327 362.364C142.524 362.848 142.849 363.189 143.304 363.386C143.774 363.583 144.334 363.682 144.986 363.682C145.44 363.682 145.902 363.644 146.372 363.568C146.842 363.477 147.198 363.409 147.44 363.364L147.804 370.568C147.259 370.735 146.524 370.917 145.599 371.114C144.69 371.311 143.615 371.432 142.372 371.477C140.009 371.568 138.009 371.258 136.372 370.545C134.736 369.818 133.562 368.705 132.849 367.205C132.137 365.705 131.986 363.818 132.395 361.545L137.986 327.727ZM153.361 371L159.179 336.091H168.565L167.543 342.182H167.906C168.906 340.015 170.247 338.379 171.929 337.273C173.626 336.152 175.452 335.591 177.406 335.591C177.891 335.591 178.399 335.621 178.929 335.682C179.474 335.727 179.959 335.803 180.384 335.909L178.929 344.523C178.505 344.371 177.899 344.25 177.111 344.159C176.338 344.053 175.603 344 174.906 344C173.497 344 172.187 344.311 170.974 344.932C169.762 345.538 168.74 346.386 167.906 347.477C167.088 348.568 166.55 349.826 166.293 351.25L163.043 371H153.361ZM188.412 371.659C186.2 371.659 184.283 371.273 182.662 370.5C181.056 369.712 179.874 368.545 179.116 367C178.359 365.455 178.17 363.538 178.548 361.25C178.882 359.311 179.51 357.689 180.435 356.386C181.374 355.068 182.518 354.008 183.866 353.205C185.215 352.402 186.707 351.788 188.344 351.364C189.995 350.939 191.7 350.652 193.457 350.5C195.488 350.288 197.139 350.083 198.412 349.886C199.7 349.689 200.662 349.409 201.298 349.045C201.935 348.667 202.321 348.106 202.457 347.364V347.227C202.685 345.803 202.42 344.697 201.662 343.909C200.92 343.106 199.73 342.705 198.094 342.705C196.366 342.705 194.897 343.083 193.685 343.841C192.488 344.598 191.632 345.561 191.116 346.727L182.298 346C183.086 343.879 184.276 342.045 185.866 340.5C187.473 338.939 189.404 337.742 191.662 336.909C193.92 336.061 196.45 335.636 199.253 335.636C201.192 335.636 203.003 335.864 204.685 336.318C206.382 336.773 207.844 337.477 209.071 338.432C210.313 339.386 211.207 340.614 211.753 342.114C212.313 343.598 212.427 345.379 212.094 347.455L208.162 371H198.98L199.798 366.159H199.526C198.783 367.25 197.874 368.212 196.798 369.045C195.723 369.864 194.488 370.508 193.094 370.977C191.7 371.432 190.139 371.659 188.412 371.659ZM192.298 364.977C193.707 364.977 195.003 364.697 196.185 364.136C197.382 363.561 198.366 362.788 199.139 361.818C199.927 360.848 200.427 359.75 200.639 358.523L201.23 354.818C200.927 355.015 200.488 355.189 199.912 355.341C199.351 355.492 198.738 355.636 198.071 355.773C197.42 355.894 196.76 356.008 196.094 356.114C195.427 356.205 194.829 356.295 194.298 356.386C193.132 356.553 192.086 356.818 191.162 357.182C190.238 357.545 189.488 358.038 188.912 358.659C188.336 359.265 187.98 360.023 187.844 360.932C187.632 362.25 187.942 363.258 188.776 363.955C189.624 364.636 190.798 364.977 192.298 364.977ZM231.355 371.682C227.764 371.682 224.81 370.924 222.491 369.409C220.188 367.879 218.575 365.758 217.651 363.045C216.741 360.333 216.582 357.212 217.173 353.682C217.749 350.106 218.954 346.97 220.787 344.273C222.62 341.561 224.946 339.447 227.764 337.932C230.598 336.402 233.779 335.636 237.31 335.636C240.355 335.636 242.931 336.189 245.037 337.295C247.143 338.402 248.688 339.955 249.673 341.955C250.658 343.955 250.991 346.303 250.673 349H241.56C241.575 347.273 241.128 345.871 240.219 344.795C239.31 343.72 237.976 343.182 236.219 343.182C234.704 343.182 233.31 343.591 232.037 344.409C230.779 345.212 229.711 346.386 228.832 347.932C227.969 349.477 227.363 351.348 227.014 353.545C226.651 355.773 226.643 357.667 226.991 359.227C227.34 360.788 228.007 361.977 228.991 362.795C229.976 363.614 231.219 364.023 232.719 364.023C233.84 364.023 234.878 363.795 235.832 363.341C236.802 362.886 237.651 362.227 238.378 361.364C239.105 360.485 239.666 359.432 240.06 358.205H249.196C248.575 360.886 247.446 363.235 245.81 365.25C244.188 367.265 242.151 368.841 239.696 369.977C237.241 371.114 234.461 371.682 231.355 371.682ZM277.622 336.091L276.418 343.364H255.372L256.599 336.091H277.622ZM262.736 327.727H272.418L267.009 360.273C266.857 361.167 266.88 361.864 267.077 362.364C267.274 362.848 267.599 363.189 268.054 363.386C268.524 363.583 269.084 363.682 269.736 363.682C270.19 363.682 270.652 363.644 271.122 363.568C271.592 363.477 271.948 363.409 272.19 363.364L272.554 370.568C272.009 370.735 271.274 370.917 270.349 371.114C269.44 371.311 268.365 371.432 267.122 371.477C264.759 371.568 262.759 371.258 261.122 370.545C259.486 369.818 258.312 368.705 257.599 367.205C256.887 365.705 256.736 363.818 257.145 361.545L262.736 327.727ZM278.111 371L283.929 336.091H293.611L287.793 371H278.111ZM289.77 331.545C288.33 331.545 287.141 331.068 286.202 330.114C285.277 329.144 284.899 327.992 285.065 326.659C285.232 325.295 285.884 324.144 287.02 323.205C288.156 322.25 289.444 321.773 290.884 321.773C292.323 321.773 293.497 322.25 294.406 323.205C295.315 324.144 295.694 325.295 295.543 326.659C295.391 327.992 294.747 329.144 293.611 330.114C292.49 331.068 291.209 331.545 289.77 331.545ZM308.639 350.818L305.276 371H295.616L301.435 336.091H310.639L309.639 342.25H310.026C311.132 340.205 312.692 338.591 314.707 337.409C316.738 336.227 319.048 335.636 321.639 335.636C324.063 335.636 326.086 336.167 327.707 337.227C329.344 338.288 330.495 339.795 331.162 341.75C331.844 343.705 331.957 346.045 331.503 348.773L327.776 371H318.094L321.526 350.5C321.874 348.364 321.601 346.697 320.707 345.5C319.829 344.288 318.412 343.682 316.457 343.682C315.154 343.682 313.957 343.962 312.866 344.523C311.776 345.083 310.859 345.902 310.116 346.977C309.389 348.038 308.897 349.318 308.639 350.818ZM348.906 384.818C345.755 384.818 343.126 384.386 341.02 383.523C338.929 382.674 337.338 381.515 336.247 380.045C335.171 378.576 334.58 376.924 334.474 375.091L343.656 373.886C343.823 374.598 344.141 375.258 344.611 375.864C345.096 376.47 345.785 376.955 346.679 377.318C347.588 377.682 348.762 377.864 350.202 377.864C352.308 377.864 354.141 377.348 355.702 376.318C357.262 375.303 358.224 373.598 358.588 371.205L359.634 364.818H359.224C358.649 365.788 357.861 366.705 356.861 367.568C355.876 368.432 354.671 369.136 353.247 369.682C351.838 370.227 350.209 370.5 348.361 370.5C345.724 370.5 343.437 369.894 341.497 368.682C339.573 367.455 338.179 365.583 337.315 363.068C336.467 360.538 336.361 357.341 336.997 353.477C337.664 349.523 338.861 346.22 340.588 343.568C342.315 340.917 344.361 338.932 346.724 337.614C349.088 336.295 351.55 335.636 354.111 335.636C356.065 335.636 357.641 335.97 358.838 336.636C360.05 337.288 360.982 338.106 361.634 339.091C362.285 340.061 362.747 341.015 363.02 341.955H363.406L364.361 336.091H373.974L368.111 371.341C367.641 374.326 366.512 376.811 364.724 378.795C362.952 380.795 360.702 382.295 357.974 383.295C355.247 384.311 352.224 384.818 348.906 384.818ZM352.543 363.227C354.088 363.227 355.474 362.841 356.702 362.068C357.944 361.28 358.982 360.159 359.815 358.705C360.649 357.235 361.232 355.477 361.565 353.432C361.899 351.386 361.891 349.614 361.543 348.114C361.209 346.598 360.558 345.424 359.588 344.591C358.634 343.758 357.376 343.341 355.815 343.341C354.209 343.341 352.8 343.773 351.588 344.636C350.376 345.485 349.368 346.667 348.565 348.182C347.777 349.697 347.224 351.447 346.906 353.432C346.573 355.447 346.558 357.189 346.861 358.659C347.179 360.114 347.808 361.242 348.747 362.045C349.687 362.833 350.952 363.227 352.543 363.227ZM401.332 371L395.741 324.455H406.491L408.855 356.795H409.241L423.082 324.455H432.287L435.423 356.864H435.832L448.878 324.455H459.628L438.582 371H428.991L425.219 340.568H424.855L410.923 371H401.332ZM456.889 371.591C455.359 371.591 454.101 371.061 453.116 370C452.147 368.939 451.707 367.652 451.798 366.136C451.904 364.636 452.533 363.371 453.685 362.341C454.851 361.295 456.192 360.773 457.707 360.773C459.162 360.773 460.389 361.295 461.389 362.341C462.389 363.386 462.829 364.652 462.707 366.136C462.632 367.136 462.306 368.053 461.73 368.886C461.17 369.705 460.457 370.364 459.594 370.864C458.73 371.348 457.829 371.591 456.889 371.591ZM470.043 371L477.77 324.455H487.611L481.247 362.886H501.202L499.838 371H470.043ZM512.264 371.591C510.734 371.591 509.476 371.061 508.491 370C507.522 368.939 507.082 367.652 507.173 366.136C507.279 364.636 507.908 363.371 509.06 362.341C510.226 361.295 511.567 360.773 513.082 360.773C514.537 360.773 515.764 361.295 516.764 362.341C517.764 363.386 518.204 364.652 518.082 366.136C518.007 367.136 517.681 368.053 517.105 368.886C516.545 369.705 515.832 370.364 514.969 370.864C514.105 371.348 513.204 371.591 512.264 371.591ZM525.418 371L533.145 324.455H542.986L536.622 362.886H556.577L555.213 371H525.418ZM567.639 371.591C566.109 371.591 564.851 371.061 563.866 370C562.897 368.939 562.457 367.652 562.548 366.136C562.654 364.636 563.283 363.371 564.435 362.341C565.601 361.295 566.942 360.773 568.457 360.773C569.912 360.773 571.139 361.295 572.139 362.341C573.139 363.386 573.579 364.652 573.457 366.136C573.382 367.136 573.056 368.053 572.48 368.886C571.92 369.705 571.207 370.364 570.344 370.864C569.48 371.348 568.579 371.591 567.639 371.591Z" fill="#DF182F"/>
</svg>
