<svg width="561" height="386" viewBox="0 0 561 386" fill="none" xmlns="http://www.w3.org/2000/svg">
<path d="M262.92 0L147.1 221H262.92H378.741L262.92 0Z" fill="#DF182F"/>
<path d="M333 20L224 221H333H442L333 20Z" fill="#DF182F"/>
<path d="M279.7 80.2148L214.219 221H279.7H345.181L279.7 80.2148Z" fill="#F02640"/>
<path d="M167.563 139.967L125 221H167.563H210.126L167.563 139.967Z" fill="#F02640"/>
<path d="M110.199 294L117.926 247.455H136.29C139.805 247.455 142.691 248.129 144.949 249.477C147.222 250.811 148.813 252.667 149.722 255.045C150.646 257.409 150.858 260.136 150.358 263.227C149.843 266.333 148.722 269.068 146.994 271.432C145.282 273.78 143.055 275.614 140.312 276.932C137.57 278.25 134.403 278.909 130.812 278.909H119.108L120.403 271.023H130.517C132.426 271.023 134.055 270.697 135.403 270.045C136.767 269.379 137.85 268.462 138.653 267.295C139.456 266.114 139.979 264.758 140.222 263.227C140.479 261.667 140.396 260.311 139.972 259.159C139.547 258.008 138.767 257.114 137.631 256.477C136.509 255.826 135.002 255.5 133.108 255.5H126.472L120.04 294H110.199ZM160.381 294.659C158.169 294.659 156.252 294.273 154.631 293.5C153.025 292.712 151.843 291.545 151.085 290C150.328 288.455 150.138 286.538 150.517 284.25C150.85 282.311 151.479 280.689 152.403 279.386C153.343 278.068 154.487 277.008 155.835 276.205C157.184 275.402 158.676 274.788 160.312 274.364C161.964 273.939 163.669 273.652 165.426 273.5C167.456 273.288 169.108 273.083 170.381 272.886C171.669 272.689 172.631 272.409 173.267 272.045C173.903 271.667 174.29 271.106 174.426 270.364V270.227C174.653 268.803 174.388 267.697 173.631 266.909C172.888 266.106 171.699 265.705 170.062 265.705C168.335 265.705 166.866 266.083 165.653 266.841C164.456 267.598 163.6 268.561 163.085 269.727L154.267 269C155.055 266.879 156.244 265.045 157.835 263.5C159.441 261.939 161.373 260.742 163.631 259.909C165.888 259.061 168.419 258.636 171.222 258.636C173.161 258.636 174.972 258.864 176.653 259.318C178.35 259.773 179.813 260.477 181.04 261.432C182.282 262.386 183.176 263.614 183.722 265.114C184.282 266.598 184.396 268.379 184.062 270.455L180.131 294H170.949L171.767 289.159H171.494C170.752 290.25 169.843 291.212 168.767 292.045C167.691 292.864 166.456 293.508 165.062 293.977C163.669 294.432 162.108 294.659 160.381 294.659ZM164.267 287.977C165.676 287.977 166.972 287.697 168.153 287.136C169.35 286.561 170.335 285.788 171.108 284.818C171.896 283.848 172.396 282.75 172.608 281.523L173.199 277.818C172.896 278.015 172.456 278.189 171.881 278.341C171.32 278.492 170.706 278.636 170.04 278.773C169.388 278.894 168.729 279.008 168.062 279.114C167.396 279.205 166.797 279.295 166.267 279.386C165.1 279.553 164.055 279.818 163.131 280.182C162.206 280.545 161.456 281.038 160.881 281.659C160.305 282.265 159.949 283.023 159.812 283.932C159.6 285.25 159.911 286.258 160.744 286.955C161.593 287.636 162.767 287.977 164.267 287.977ZM187.642 294L193.46 259.091H203.142L197.324 294H187.642ZM199.301 254.545C197.862 254.545 196.672 254.068 195.733 253.114C194.809 252.144 194.43 250.992 194.597 249.659C194.763 248.295 195.415 247.144 196.551 246.205C197.688 245.25 198.975 244.773 200.415 244.773C201.854 244.773 203.028 245.25 203.938 246.205C204.847 247.144 205.225 248.295 205.074 249.659C204.922 250.992 204.278 252.144 203.142 253.114C202.021 254.068 200.741 254.545 199.301 254.545ZM218.17 273.818L214.807 294H205.148L210.966 259.091H220.17L219.17 265.25H219.557C220.663 263.205 222.223 261.591 224.239 260.409C226.269 259.227 228.58 258.636 231.17 258.636C233.595 258.636 235.617 259.167 237.239 260.227C238.875 261.288 240.027 262.795 240.693 264.75C241.375 266.705 241.489 269.045 241.034 271.773L237.307 294H227.625L231.057 273.5C231.405 271.364 231.133 269.697 230.239 268.5C229.36 267.288 227.943 266.682 225.989 266.682C224.686 266.682 223.489 266.962 222.398 267.523C221.307 268.083 220.39 268.902 219.648 269.977C218.92 271.038 218.428 272.318 218.17 273.818ZM269.278 259.091L268.074 266.364H247.028L248.256 259.091H269.278ZM254.392 250.727H264.074L258.665 283.273C258.513 284.167 258.536 284.864 258.733 285.364C258.93 285.848 259.256 286.189 259.71 286.386C260.18 286.583 260.741 286.682 261.392 286.682C261.847 286.682 262.309 286.644 262.778 286.568C263.248 286.477 263.604 286.409 263.847 286.364L264.21 293.568C263.665 293.735 262.93 293.917 262.006 294.114C261.097 294.311 260.021 294.432 258.778 294.477C256.415 294.568 254.415 294.258 252.778 293.545C251.142 292.818 249.968 291.705 249.256 290.205C248.544 288.705 248.392 286.818 248.801 284.545L254.392 250.727ZM289.352 255.568L290.716 247.455H328.943L327.58 255.568H313.33L306.966 294H297.239L303.602 255.568H289.352ZM338.085 294.682C334.509 294.682 331.547 293.955 329.199 292.5C326.85 291.03 325.199 288.955 324.244 286.273C323.305 283.576 323.146 280.386 323.767 276.705C324.373 273.114 325.593 269.962 327.426 267.25C329.275 264.538 331.593 262.424 334.381 260.909C337.169 259.394 340.275 258.636 343.699 258.636C346.002 258.636 348.085 259.008 349.949 259.75C351.828 260.477 353.388 261.583 354.631 263.068C355.873 264.538 356.722 266.379 357.176 268.591C357.646 270.803 357.638 273.394 357.153 276.364L356.722 279.023H327.267L328.199 273.023H348.562C348.79 271.629 348.699 270.394 348.29 269.318C347.881 268.242 347.199 267.402 346.244 266.795C345.29 266.174 344.116 265.864 342.722 265.864C341.297 265.864 339.964 266.212 338.722 266.909C337.479 267.606 336.434 268.523 335.585 269.659C334.752 270.78 334.214 272 333.972 273.318L332.903 279.273C332.6 281.106 332.661 282.629 333.085 283.841C333.525 285.053 334.282 285.962 335.358 286.568C336.434 287.159 337.797 287.455 339.449 287.455C340.525 287.455 341.532 287.303 342.472 287C343.426 286.697 344.275 286.25 345.017 285.659C345.759 285.053 346.366 284.303 346.835 283.409L355.676 284C354.858 286.152 353.616 288.03 351.949 289.636C350.282 291.227 348.275 292.47 345.926 293.364C343.593 294.242 340.979 294.682 338.085 294.682ZM376.261 294.682C372.67 294.682 369.716 293.924 367.398 292.409C365.095 290.879 363.481 288.758 362.557 286.045C361.648 283.333 361.489 280.212 362.08 276.682C362.655 273.106 363.86 269.97 365.693 267.273C367.527 264.561 369.852 262.447 372.67 260.932C375.504 259.402 378.686 258.636 382.216 258.636C385.261 258.636 387.837 259.189 389.943 260.295C392.049 261.402 393.595 262.955 394.58 264.955C395.564 266.955 395.898 269.303 395.58 272H386.466C386.481 270.273 386.034 268.871 385.125 267.795C384.216 266.72 382.883 266.182 381.125 266.182C379.61 266.182 378.216 266.591 376.943 267.409C375.686 268.212 374.617 269.386 373.739 270.932C372.875 272.477 372.269 274.348 371.92 276.545C371.557 278.773 371.549 280.667 371.898 282.227C372.246 283.788 372.913 284.977 373.898 285.795C374.883 286.614 376.125 287.023 377.625 287.023C378.746 287.023 379.784 286.795 380.739 286.341C381.708 285.886 382.557 285.227 383.284 284.364C384.011 283.485 384.572 282.432 384.966 281.205H394.102C393.481 283.886 392.352 286.235 390.716 288.25C389.095 290.265 387.057 291.841 384.602 292.977C382.148 294.114 379.367 294.682 376.261 294.682ZM411.233 273.818L407.869 294H398.21L405.938 247.455H415.324L412.415 265.25H412.801C413.922 263.189 415.46 261.576 417.415 260.409C419.369 259.227 421.68 258.636 424.347 258.636C426.771 258.636 428.794 259.167 430.415 260.227C432.051 261.273 433.21 262.78 433.892 264.75C434.574 266.705 434.688 269.045 434.233 271.773L430.506 294H420.847L424.256 273.5C424.604 271.348 424.324 269.674 423.415 268.477C422.521 267.28 421.097 266.682 419.142 266.682C417.824 266.682 416.612 266.962 415.506 267.523C414.4 268.083 413.468 268.902 412.71 269.977C411.968 271.038 411.475 272.318 411.233 273.818ZM47.5568 340.75H37.7386C37.7689 339.447 37.6023 338.295 37.2386 337.295C36.875 336.28 36.3295 335.417 35.6023 334.705C34.8902 333.992 34.0189 333.455 32.9886 333.091C31.9583 332.712 30.7992 332.523 29.5114 332.523C27.0265 332.523 24.7462 333.144 22.6705 334.386C20.5947 335.629 18.8447 337.432 17.4205 339.795C15.9962 342.144 15.0114 344.985 14.4659 348.318C13.9356 351.53 13.9659 354.22 14.5568 356.386C15.1477 358.553 16.1932 360.189 17.6932 361.295C19.2083 362.386 21.0947 362.932 23.3523 362.932C24.7462 362.932 26.072 362.758 27.3295 362.409C28.5871 362.045 29.7311 361.53 30.7614 360.864C31.8068 360.182 32.7159 359.356 33.4886 358.386C34.2765 357.417 34.8902 356.318 35.3295 355.091H45.2159C44.5947 357.227 43.625 359.288 42.3068 361.273C41.0038 363.258 39.3902 365.03 37.4659 366.591C35.5417 368.136 33.3523 369.364 30.8977 370.273C28.4432 371.182 25.7538 371.636 22.8295 371.636C18.6023 371.636 14.9735 370.667 11.9432 368.727C8.92803 366.788 6.75379 363.992 5.42045 360.341C4.08712 356.689 3.83712 352.288 4.67045 347.136C5.50379 342.152 7.13258 337.924 9.55682 334.455C11.9962 330.97 14.9583 328.326 18.4432 326.523C21.9432 324.72 25.6856 323.818 29.6705 323.818C32.4432 323.818 34.9508 324.197 37.1932 324.955C39.4356 325.712 41.3447 326.818 42.9205 328.273C44.5114 329.712 45.7083 331.477 46.5114 333.568C47.3144 335.659 47.6629 338.053 47.5568 340.75ZM65.2727 371.682C61.7121 371.682 58.7652 370.924 56.4318 369.409C54.0985 367.879 52.4545 365.758 51.5 363.045C50.5606 360.318 50.3864 357.144 50.9773 353.523C51.553 349.947 52.75 346.818 54.5682 344.136C56.3864 341.455 58.697 339.371 61.5 337.886C64.303 336.386 67.4621 335.636 70.9773 335.636C74.5227 335.636 77.4621 336.402 79.7955 337.932C82.1288 339.447 83.7727 341.568 84.7273 344.295C85.6818 347.023 85.8636 350.197 85.2727 353.818C84.6818 357.379 83.4697 360.5 81.6364 363.182C79.803 365.864 77.4924 367.955 74.7045 369.455C71.9167 370.939 68.7727 371.682 65.2727 371.682ZM66.2273 364.182C67.8636 364.182 69.3106 363.72 70.5682 362.795C71.8409 361.856 72.8939 360.583 73.7273 358.977C74.5758 357.356 75.1667 355.523 75.5 353.477C75.8333 351.462 75.8561 349.674 75.5682 348.114C75.2803 346.538 74.6742 345.295 73.75 344.386C72.8409 343.477 71.5909 343.023 70 343.023C68.3636 343.023 66.9091 343.492 65.6364 344.432C64.3636 345.356 63.3106 346.629 62.4773 348.25C61.6439 349.871 61.0606 351.712 60.7273 353.773C60.4091 355.773 60.3864 357.561 60.6591 359.136C60.9318 360.697 61.5303 361.932 62.4545 362.841C63.3788 363.735 64.6364 364.182 66.2273 364.182ZM101.795 350.818L98.4318 371H88.7727L94.5909 336.091H103.795L102.795 342.25H103.182C104.288 340.205 105.848 338.591 107.864 337.409C109.894 336.227 112.205 335.636 114.795 335.636C117.22 335.636 119.242 336.167 120.864 337.227C122.5 338.288 123.652 339.795 124.318 341.75C125 343.705 125.114 346.045 124.659 348.773L120.932 371H111.25L114.682 350.5C115.03 348.364 114.758 346.697 113.864 345.5C112.985 344.288 111.568 343.682 109.614 343.682C108.311 343.682 107.114 343.962 106.023 344.523C104.932 345.083 104.015 345.902 103.273 346.977C102.545 348.038 102.053 349.318 101.795 350.818ZM152.903 336.091L151.699 343.364H130.653L131.881 336.091H152.903ZM138.017 327.727H147.699L142.29 360.273C142.138 361.167 142.161 361.864 142.358 362.364C142.555 362.848 142.881 363.189 143.335 363.386C143.805 363.583 144.366 363.682 145.017 363.682C145.472 363.682 145.934 363.644 146.403 363.568C146.873 363.477 147.229 363.409 147.472 363.364L147.835 370.568C147.29 370.735 146.555 370.917 145.631 371.114C144.722 371.311 143.646 371.432 142.403 371.477C140.04 371.568 138.04 371.258 136.403 370.545C134.767 369.818 133.593 368.705 132.881 367.205C132.169 365.705 132.017 363.818 132.426 361.545L138.017 327.727ZM153.392 371L159.21 336.091H168.597L167.574 342.182H167.938C168.938 340.015 170.278 338.379 171.96 337.273C173.657 336.152 175.483 335.591 177.438 335.591C177.922 335.591 178.43 335.621 178.96 335.682C179.506 335.727 179.991 335.803 180.415 335.909L178.96 344.523C178.536 344.371 177.93 344.25 177.142 344.159C176.369 344.053 175.634 344 174.938 344C173.528 344 172.218 344.311 171.006 344.932C169.794 345.538 168.771 346.386 167.938 347.477C167.119 348.568 166.581 349.826 166.324 351.25L163.074 371H153.392ZM188.443 371.659C186.231 371.659 184.314 371.273 182.693 370.5C181.087 369.712 179.905 368.545 179.148 367C178.39 365.455 178.201 363.538 178.58 361.25C178.913 359.311 179.542 357.689 180.466 356.386C181.405 355.068 182.549 354.008 183.898 353.205C185.246 352.402 186.739 351.788 188.375 351.364C190.027 350.939 191.731 350.652 193.489 350.5C195.519 350.288 197.17 350.083 198.443 349.886C199.731 349.689 200.693 349.409 201.33 349.045C201.966 348.667 202.352 348.106 202.489 347.364V347.227C202.716 345.803 202.451 344.697 201.693 343.909C200.951 343.106 199.761 342.705 198.125 342.705C196.398 342.705 194.928 343.083 193.716 343.841C192.519 344.598 191.663 345.561 191.148 346.727L182.33 346C183.117 343.879 184.307 342.045 185.898 340.5C187.504 338.939 189.436 337.742 191.693 336.909C193.951 336.061 196.481 335.636 199.284 335.636C201.223 335.636 203.034 335.864 204.716 336.318C206.413 336.773 207.875 337.477 209.102 338.432C210.345 339.386 211.239 340.614 211.784 342.114C212.345 343.598 212.458 345.379 212.125 347.455L208.193 371H199.011L199.83 366.159H199.557C198.814 367.25 197.905 368.212 196.83 369.045C195.754 369.864 194.519 370.508 193.125 370.977C191.731 371.432 190.17 371.659 188.443 371.659ZM192.33 364.977C193.739 364.977 195.034 364.697 196.216 364.136C197.413 363.561 198.398 362.788 199.17 361.818C199.958 360.848 200.458 359.75 200.67 358.523L201.261 354.818C200.958 355.015 200.519 355.189 199.943 355.341C199.383 355.492 198.769 355.636 198.102 355.773C197.451 355.894 196.792 356.008 196.125 356.114C195.458 356.205 194.86 356.295 194.33 356.386C193.163 356.553 192.117 356.818 191.193 357.182C190.269 357.545 189.519 358.038 188.943 358.659C188.367 359.265 188.011 360.023 187.875 360.932C187.663 362.25 187.973 363.258 188.807 363.955C189.655 364.636 190.83 364.977 192.33 364.977ZM231.386 371.682C227.795 371.682 224.841 370.924 222.523 369.409C220.22 367.879 218.606 365.758 217.682 363.045C216.773 360.333 216.614 357.212 217.205 353.682C217.78 350.106 218.985 346.97 220.818 344.273C222.652 341.561 224.977 339.447 227.795 337.932C230.629 336.402 233.811 335.636 237.341 335.636C240.386 335.636 242.962 336.189 245.068 337.295C247.174 338.402 248.72 339.955 249.705 341.955C250.689 343.955 251.023 346.303 250.705 349H241.591C241.606 347.273 241.159 345.871 240.25 344.795C239.341 343.72 238.008 343.182 236.25 343.182C234.735 343.182 233.341 343.591 232.068 344.409C230.811 345.212 229.742 346.386 228.864 347.932C228 349.477 227.394 351.348 227.045 353.545C226.682 355.773 226.674 357.667 227.023 359.227C227.371 360.788 228.038 361.977 229.023 362.795C230.008 363.614 231.25 364.023 232.75 364.023C233.871 364.023 234.909 363.795 235.864 363.341C236.833 362.886 237.682 362.227 238.409 361.364C239.136 360.485 239.697 359.432 240.091 358.205H249.227C248.606 360.886 247.477 363.235 245.841 365.25C244.22 367.265 242.182 368.841 239.727 369.977C237.273 371.114 234.492 371.682 231.386 371.682ZM277.653 336.091L276.449 343.364H255.403L256.631 336.091H277.653ZM262.767 327.727H272.449L267.04 360.273C266.888 361.167 266.911 361.864 267.108 362.364C267.305 362.848 267.631 363.189 268.085 363.386C268.555 363.583 269.116 363.682 269.767 363.682C270.222 363.682 270.684 363.644 271.153 363.568C271.623 363.477 271.979 363.409 272.222 363.364L272.585 370.568C272.04 370.735 271.305 370.917 270.381 371.114C269.472 371.311 268.396 371.432 267.153 371.477C264.79 371.568 262.79 371.258 261.153 370.545C259.517 369.818 258.343 368.705 257.631 367.205C256.919 365.705 256.767 363.818 257.176 361.545L262.767 327.727ZM278.142 371L283.96 336.091H293.642L287.824 371H278.142ZM289.801 331.545C288.362 331.545 287.172 331.068 286.233 330.114C285.309 329.144 284.93 327.992 285.097 326.659C285.263 325.295 285.915 324.144 287.051 323.205C288.188 322.25 289.475 321.773 290.915 321.773C292.354 321.773 293.528 322.25 294.438 323.205C295.347 324.144 295.725 325.295 295.574 326.659C295.422 327.992 294.778 329.144 293.642 330.114C292.521 331.068 291.241 331.545 289.801 331.545ZM308.67 350.818L305.307 371H295.648L301.466 336.091H310.67L309.67 342.25H310.057C311.163 340.205 312.723 338.591 314.739 337.409C316.769 336.227 319.08 335.636 321.67 335.636C324.095 335.636 326.117 336.167 327.739 337.227C329.375 338.288 330.527 339.795 331.193 341.75C331.875 343.705 331.989 346.045 331.534 348.773L327.807 371H318.125L321.557 350.5C321.905 348.364 321.633 346.697 320.739 345.5C319.86 344.288 318.443 343.682 316.489 343.682C315.186 343.682 313.989 343.962 312.898 344.523C311.807 345.083 310.89 345.902 310.148 346.977C309.42 348.038 308.928 349.318 308.67 350.818ZM348.938 384.818C345.786 384.818 343.157 384.386 341.051 383.523C338.96 382.674 337.369 381.515 336.278 380.045C335.203 378.576 334.612 376.924 334.506 375.091L343.688 373.886C343.854 374.598 344.172 375.258 344.642 375.864C345.127 376.47 345.816 376.955 346.71 377.318C347.619 377.682 348.794 377.864 350.233 377.864C352.339 377.864 354.172 377.348 355.733 376.318C357.294 375.303 358.256 373.598 358.619 371.205L359.665 364.818H359.256C358.68 365.788 357.892 366.705 356.892 367.568C355.907 368.432 354.703 369.136 353.278 369.682C351.869 370.227 350.241 370.5 348.392 370.5C345.756 370.5 343.468 369.894 341.528 368.682C339.604 367.455 338.21 365.583 337.347 363.068C336.498 360.538 336.392 357.341 337.028 353.477C337.695 349.523 338.892 346.22 340.619 343.568C342.347 340.917 344.392 338.932 346.756 337.614C349.119 336.295 351.581 335.636 354.142 335.636C356.097 335.636 357.672 335.97 358.869 336.636C360.081 337.288 361.013 338.106 361.665 339.091C362.316 340.061 362.778 341.015 363.051 341.955H363.438L364.392 336.091H374.006L368.142 371.341C367.672 374.326 366.544 376.811 364.756 378.795C362.983 380.795 360.733 382.295 358.006 383.295C355.278 384.311 352.256 384.818 348.938 384.818ZM352.574 363.227C354.119 363.227 355.506 362.841 356.733 362.068C357.975 361.28 359.013 360.159 359.847 358.705C360.68 357.235 361.263 355.477 361.597 353.432C361.93 351.386 361.922 349.614 361.574 348.114C361.241 346.598 360.589 345.424 359.619 344.591C358.665 343.758 357.407 343.341 355.847 343.341C354.241 343.341 352.831 343.773 351.619 344.636C350.407 345.485 349.4 346.667 348.597 348.182C347.809 349.697 347.256 351.447 346.938 353.432C346.604 355.447 346.589 357.189 346.892 358.659C347.21 360.114 347.839 361.242 348.778 362.045C349.718 362.833 350.983 363.227 352.574 363.227ZM401.364 371L395.773 324.455H406.523L408.886 356.795H409.273L423.114 324.455H432.318L435.455 356.864H435.864L448.909 324.455H459.659L438.614 371H429.023L425.25 340.568H424.886L410.955 371H401.364ZM456.92 371.591C455.39 371.591 454.133 371.061 453.148 370C452.178 368.939 451.739 367.652 451.83 366.136C451.936 364.636 452.564 363.371 453.716 362.341C454.883 361.295 456.223 360.773 457.739 360.773C459.193 360.773 460.42 361.295 461.42 362.341C462.42 363.386 462.86 364.652 462.739 366.136C462.663 367.136 462.337 368.053 461.761 368.886C461.201 369.705 460.489 370.364 459.625 370.864C458.761 371.348 457.86 371.591 456.92 371.591ZM470.074 371L477.801 324.455H487.642L481.278 362.886H501.233L499.869 371H470.074ZM512.295 371.591C510.765 371.591 509.508 371.061 508.523 370C507.553 368.939 507.114 367.652 507.205 366.136C507.311 364.636 507.939 363.371 509.091 362.341C510.258 361.295 511.598 360.773 513.114 360.773C514.568 360.773 515.795 361.295 516.795 362.341C517.795 363.386 518.235 364.652 518.114 366.136C518.038 367.136 517.712 368.053 517.136 368.886C516.576 369.705 515.864 370.364 515 370.864C514.136 371.348 513.235 371.591 512.295 371.591ZM525.449 371L533.176 324.455H543.017L536.653 362.886H556.608L555.244 371H525.449Z" fill="#DF182F"/>
</svg>
